# AST/ASF file generated using VICON BodyLanguage
# -----------------------------------------------
:version 1.10
:name VICON
:units
  mass 1.0
  length 0.45
  angle deg
:documentation
   .ast/.asf automatically generated from VICON data using
   VICON BodyBuilder and BodyLanguage model FoxedUp or BRILLIANT.MOD
:root
   order TX TY TZ RX RY RZ
   axis XYZ
   position 0 0 0  
   orientation 0 0 0 
:bonedata
  begin
     id 1 
     name lhipjoint
     direction 0.643824 -0.71708 0.266994 
     length 2.52133 
     axis 0 0 0  XYZ
  end
  begin
     id 2 
     name lfemur
     direction 0.34202 -0.939693 0  
     length 7.51824  
     axis 0 0 20  XYZ
    dof rx ry rz
    limits (-160.0 20.0)
           (-70.0 70.0)
           (-60.0 70.0)
  end
  begin
     id 3 
     name ltibia
     direction 0.34202 -0.939693 0   
     length 7.3685   
     axis 0 0 20   XYZ
    dof rx
    limits (-10.0 170.0)
  end
  begin
     id 4 
     name lfoot
     direction 0.105419 -0.289636 0.951314   
     length 2.20972   
     axis -90 7.62852e-016 20   XYZ
    dof rx rz
    limits (-45.0 90.0)
           (-70.0 20.0)
  end
  begin
     id 5 
     name ltoes
     direction 1.53549e-011 -4.21833e-011 1   
     length 1.10139   
     axis -90 7.62852e-016 20   XYZ
    dof rx
    limits (-90.0 20.0)
  end
  begin
     id 6 
     name rhipjoint
     direction -0.608823 -0.743445 0.276811   
     length 2.43192  
     axis 0 0 0  XYZ 
  end
  begin
     id 7 
     name rfemur
     direction -0.34202 -0.939693 0   
     length 7.69715   
     axis 0 0 -20   XYZ
    dof rx ry rz
    limits (-160.0 20.0)
           (-70.0 70.0)
           (-70.0 60.0)
  end
  begin
     id 8 
     name rtibia
     direction -0.34202 -0.939693 0   
     length 7.44924   
     axis 0 0 -20   XYZ
    dof rx
    limits (-10.0 170.0)
 end
 begin
     id 9 
     name rfoot
     direction -0.103614 -0.284677 0.953007   
     length 2.22623  
     axis -90 -7.62852e-016 -20   XYZ
    dof rx rz
    limits (-45.0 90.0)
           (-20.0 70.0)
  end
  begin
     id 10 
     name rtoes
     direction -1.53537e-011 -4.22026e-011 1   
     length 1.11   
     axis -90 -7.62852e-016 -20   XYZ
    dof rx
    limits (-90.0 20.0)
  end
  begin
     id 11 
     name lowerback
     direction -0.0101212 0.99662 -0.0815298   
     length 2.08277   
     axis 0 0 0   XYZ
    dof rx ry rz
    limits (-20.0 45.0)
           (-30.0 30.0)
           (-30.0 30.0)
  end
  begin
     id 12 
     name upperback
     direction 0.024314 0.999591 -0.0150645   
     length 2.08524   
     axis 0 0 0   XYZ
    dof rx ry rz
    limits (-20.0 45.0)
           (-30.0 30.0)
           (-30.0 30.0)
  end
  begin
     id 13 
     name thorax
     direction 0.0285959 0.999323 0.0231357   
     length 2.09645   
     axis 0 0 0   XYZ
    dof rx ry rz
    limits (-20.0 45.0)
           (-30.0 30.0)
           (-30.0 30.0)
  end
  begin
     id 14 
     name lowerneck
     direction -0.065512 0.979301 0.191515   
     length 1.63798   
     axis 0 0 0   XYZ
    dof rx ry rz
    limits (-20.0 45.0)
           (-30.0 30.0)
           (-30.0 30.0)
  end
  begin
     id 15 
     name upperneck
     direction 0.0498479 0.98191 -0.182667   
     length 1.68731   
     axis 0 0 0   XYZ
    dof rx ry rz
    limits (-20.0 45.0)
           (-30.0 30.0)
           (-30.0 30.0)
  end
  begin
     id 16
     name head
     direction 0.0230358 0.996257 -0.0833175  
     length 1.69785  
     axis 0 0 0   XYZ
    dof rx ry rz
    limits (-20.0 45.0)
           (-30.0 30.0)
           (-30.0 30.0)
  end
  begin
     id 17 
     name lclavicle
     direction 0.967963 0.201165 -0.150269  
     length 3.63976  
     axis 0 0 0   XYZ
    dof ry rz
    limits (-20.0 10.0)
           (0.0 20.0)
  end
  begin
     id 18 
     name lhumerus
     direction 1 -4.48954e-011 -2.92837e-028   
     length 5.32462   
     axis 180 -30 -90   XYZ
    dof rx ry rz
    limits (-60.0 90.0)
           (-90.0 90.0)
           (-90.0 90.0)
  end
  begin
     id 19
     name lradius
     direction 1 -4.48958e-011 -6.39511e-027   
     length 3.48402   
     axis 180 -30 -90   XYZ
    dof rx
    limits (-10.0 170.0)
  end
  begin
     id 20
     name lwrist
     direction 1 -4.48975e-011 -1.1413e-026   
     length 1.74201   
     axis 6.88575e-015 90 90   XYZ
    dof ry
    limits (-180.0 0.0)
 end
  begin
     id 21 
     name lhand
     direction 1 -4.48899e-011 -2.28192e-026   
     length 0.572476   
     axis 1.45643e-014 90 90   XYZ
    dof rx rz
    limits (-90.0 90.0)
           (-45.0 45.0)
  end
  begin
     id 22 
     name lfingers
     direction 1 -4.49155e-011 -4.5684e-026   
     length 0.461545   
     axis 2.91283e-014 90 90   XYZ
    dof rx
    limits (0.0 90.0)
  end
  begin
     id 23
     name lthumb
     direction 0.707107 -6.34943e-011 0.707107   
     length 0.662688   
     axis -90 45 -2.25915e-014   XYZ
    dof rx rz
    limits (-45.0 45.0)
           (-45.0 45.0)
  end
  begin
     id 24 
     name rclavicle
     direction -0.964103 0.264019 -0.0282629   
     length 3.54491  
     axis 0 0 0   XYZ 
    dof ry rz
    limits (-10.0 20.0)
           (-20.0 0.0)
  end
  begin
     id 25 
     name rhumerus
     direction -1 -4.48964e-011 -2.45032e-027  
     length 5.33589   
     axis 180 30 90   XYZ
    dof rx ry rz
    limits (-90.0 60.0)
           (-90.0 90.0)
           (-90.0 90.0)
  end
  begin
     id 26 
     name rradius
     direction -1 -4.48987e-011 -1.55093e-027   
     length 3.64134   
     axis 180 30 90   XYZ
    dof rx
    limits (-10.0 170.0)
  end
  begin
     id 27 
     name rwrist
     direction -1 -4.4897e-011 -1.14128e-026   
     length 1.82067   
     axis 6.88575e-015 -90 -90   XYZ
    dof ry
    limits (-180.0 0.0)
  end
  begin
     id 28
     name rhand
     direction -1 -4.49021e-011 -2.28301e-026   
     length 0.734811   
     axis 1.45643e-014 -90 -90   XYZ
    dof rx rz
    limits (-90.0 90.0)
           (-45.0 45.0)
  end
  begin
     id 29
     name rfingers
     direction -1 -4.48862e-011 -4.56319e-026   
     length 0.592424   
     axis 2.91283e-014 -90 -90   XYZ
    dof rx
    limits (0.0 90.0)
  end
  begin
     id 30
     name rthumb
     direction -0.707107 -6.34978e-011 0.707107   
     length 0.850605   
     axis -90 -45 2.25915e-014   XYZ
    dof rx rz
    limits (-45.0 45.0)
           (-45.0 45.0)
  end
:hierarchy
  begin
    root lhipjoint rhipjoint lowerback
    lhipjoint lfemur
    lfemur ltibia
    ltibia lfoot
    lfoot ltoes
    rhipjoint rfemur
    rfemur rtibia
    rtibia rfoot
    rfoot rtoes
    lowerback upperback
    upperback thorax
    thorax lowerneck lclavicle rclavicle
    lowerneck upperneck
    upperneck head
    lclavicle lhumerus
    lhumerus lradius
    lradius lwrist
    lwrist lhand lthumb
    lhand lfingers
    rclavicle rhumerus
    rhumerus rradius
    rradius rwrist
    rwrist rhand rthumb
    rhand rfingers
  end

#!OML:ASF F:\VICON\USERDATA\INSTALL\rory3\rory3.ASF
:FULLY-SPECIFIED
:DEGREES
437
root -1.69127 17.4242 0.361024 1.45862 4.32674 0.26268
lowerback 7.89397 -1.37534 -2.74315
upperback -1.49906 -1.9912 2.09566
thorax -5.83281 -0.85008 3.99212
lowerneck -25.3201 -2.55664 -10.2786
upperneck 24.6964 -1.30295 5.96304
head 12.5189 -0.744969 3.77997
rclavicle 5.00689e-015 6.36111e-015
rhumerus -37.0244 -18.8786 -48.9543
rradius 72.1073
rwrist 7.19475
rhand -26.6975 -7.40396
rfingers 7.12502
rthumb -0.127925 -37.3837
lclavicle 5.00689e-015 6.36111e-015
lhumerus -36.4033 22.8194 58.8703
lradius 57.8534
lwrist 18.84
lhand -27.0975 40.7564
lfingers 7.12502
lthumb -0.514272 70.7355
rfemur -15.5785 -0.886819 20.9867
rtibia 47.0629
rfoot -17.8117 5.40809
rtoes 7.49124
lfemur -17.2126 2.99073 -21.8987
ltibia 46.7099
lfoot -15.2544 -8.5657
ltoes -13.2373
438
root -1.68042 17.3234 0.341194 1.72207 4.10141 0.0975031
lowerback 8.09248 -1.28015 -2.607
upperback -1.57272 -1.8474 2.20548
thorax -6.0369 -0.775802 4.02273
lowerneck -25.6874 -2.52646 -10.0867
upperneck 24.6814 -1.20329 5.66225
head 12.5716 -0.7201 3.64978
rclavicle 1.38901e-014 -2.50469e-014
rhumerus -37.4309 -17.825 -50.746
rradius 70.97
rwrist 7.92171
rhand -25.0945 -5.92364
rfingers 7.12502
rthumb 1.42031 -35.8987
lclavicle 1.38901e-014 -2.50469e-014
lhumerus -36.6524 22.2548 61.2605
lradius 56.9514
lwrist 17.5421
lhand -26.2368 39.7604
lfingers 7.12502
lthumb 0.317056 69.7399
rfemur -16.4121 -0.783947 21.0956
rtibia 48.0147
rfoot -18.8653 6.03119
rtoes 7.67059
lfemur -17.4721 2.77888 -21.8313
ltibia 46.9232
lfoot -17.0095 -7.97023
ltoes -12.4559
439
root -1.67053 17.2322 0.328087 2.13113 3.73289 0.220299
lowerback 7.91802 -1.18475 -2.80902
upperback -1.59678 -1.73526 2.24355
thorax -5.96624 -0.714066 4.1576
lowerneck -25.9914 -2.44239 -9.86508
upperneck 24.5312 -1.04381 5.35596
head 12.5523 -0.664518 3.51883
rclavicle 1.18525e-014 1.19271e-015
rhumerus -37.5439 -16.728 -52.7004
rradius 69.4647
rwrist 8.40081
rhand -23.6283 -4.4343
rfingers 7.12502
rthumb 2.83638 -34.3952
lclavicle 1.18525e-014 1.19271e-015
lhumerus -36.9585 22.0885 63.388
lradius 55.791
lwrist 15.3509
lhand -24.5014 37.6922
lfingers 7.12502
lthumb 1.99311 67.6626
rfemur -17.4474 -0.784212 20.8697
rtibia 49.059
rfoot -19.7709 6.6721
rtoes 7.54993
lfemur -17.7943 2.63725 -22.043
ltibia 46.9492
lfoot -18.6782 -7.71481
ltoes -12.3722
440
root -1.66271 17.1501 0.320845 2.37092 3.20846 0.467116
lowerback 7.71359 -1.03585 -3.10121
upperback -1.47848 -1.56448 2.18504
thorax -5.73514 -0.628399 4.23052
lowerneck -26.2661 -2.38197 -9.6791
upperneck 24.2951 -0.937734 5.14996
head 12.4991 -0.620499 3.42141
rclavicle 1.13307e-014 -4.77083e-015
rhumerus -37.5461 -15.745 -54.743
rradius 67.7162
rwrist 9.00008
rhand -22.2533 -3.38668
rfingers 7.12502
rthumb 4.16413 -33.3257
lclavicle 1.13307e-014 -4.77083e-015
lhumerus -37.0646 21.9496 65.4651
lradius 54.4205
lwrist 13.0849
lhand -23.4172 37.1288
lfingers 7.12502
lthumb 3.04021 67.0869
rfemur -18.2845 -0.797048 20.5137
rtibia 50.0787
rfoot -20.3801 7.38087
rtoes 7.84524
lfemur -17.8608 2.7 -22.3669
ltibia 46.8147
lfoot -20.0874 -7.20183
ltoes -12.9282
441
root -1.64987 17.0825 0.318463 2.3426 2.56467 0.714985
lowerback 7.66816 -0.831096 -3.29504
upperback -1.29348 -1.31582 2.04989
thorax -5.5371 -0.509462 4.16252
lowerneck -26.4673 -2.36519 -9.52593
upperneck 24.1384 -0.929646 5.07239
head 12.4729 -0.607728 3.36422
rclavicle 3.58806e-014 -2.98177e-014
rhumerus -37.6161 -14.946 -56.7598
rradius 65.8586
rwrist 9.84445
rhand -20.8628 -2.81567
rfingers 7.12502
rthumb 5.50678 -32.7241
lclavicle 3.58806e-014 -2.98177e-014
lhumerus -37.087 21.6718 67.4513
lradius 52.92
lwrist 10.8969
lhand -22.8154 37.0118
lfingers 7.12502
lthumb 3.62141 66.9607
rfemur -18.7528 -0.878382 20.1413
rtibia 50.9823
rfoot -20.8796 8.072
rtoes 7.66484
lfemur -17.5679 2.90033 -22.7156
ltibia 46.5819
lfoot -21.2725 -6.44919
ltoes -12.1932
442
root -1.63364 17.0373 0.32239 2.17192 2.01814 0.849768
lowerback 7.69032 -0.680253 -3.40949
upperback -1.0902 -1.12802 1.99876
thorax -5.35282 -0.421871 4.14776
lowerneck -26.6125 -2.3474 -9.5258
upperneck 24.0895 -0.904535 5.1273
head 12.4788 -0.586549 3.38994
rclavicle -4.57205e-015 -6.36111e-015
rhumerus -37.6302 -14.1119 -58.7381
rradius 63.9537
rwrist 10.4667
rhand -19.8708 -2.40082
rfingers 7.12502
rthumb 6.4645 -32.2822
lclavicle -4.57205e-015 -6.36111e-015
lhumerus -37.2095 21.3437 69.4275
lradius 51.452
lwrist 8.96119
lhand -22.8163 36.13
lfingers 7.12502
lthumb 3.62047 66.079
rfemur -18.9307 -1.12033 19.8991
rtibia 51.7002
rfoot -21.5759 8.50357
rtoes 6.97761
lfemur -17.1134 3.21803 -22.9602
ltibia 46.301
lfoot -22.234 -6.06765
ltoes -10.4983
443
root -1.61842 17.0072 0.323326 2.09157 1.72391 1.13144
lowerback 7.70866 -0.63856 -3.76846
upperback -0.950241 -1.10682 1.99491
thorax -5.21257 -0.406795 4.34282
lowerneck -26.6632 -2.26028 -9.56555
upperneck 23.9833 -0.776875 5.19189
head 12.435 -0.521754 3.44212
rclavicle -1.13556e-014 3.97569e-016
rhumerus -37.5052 -13.2949 -60.6326
rradius 61.9528
rwrist 10.8989
rhand -19.245 -1.6834
rfingers 7.12502
rthumb 7.06863 -31.5454
lclavicle -1.13556e-014 3.97569e-016
lhumerus -37.4239 20.9848 71.4675
lradius 50.0841
lwrist 7.84967
lhand -22.4731 41.5265
lfingers 7.12502
lthumb 3.95188 71.4696
rfemur -19.0787 -1.50959 19.5336
rtibia 52.1796
rfoot -22.2569 8.76794
rtoes 6.55441
lfemur -16.7893 3.5269 -23.3916
ltibia 46.0122
lfoot -23.0139 -5.89628
ltoes -8.68646
444
root -1.60742 16.9826 0.317393 2.11328 1.59791 1.53525
lowerback 7.77081 -0.653912 -4.25615
upperback -0.872026 -1.17725 1.96272
thorax -5.15079 -0.431173 4.59435
lowerneck -26.8703 -2.17352 -9.57191
upperneck 23.9574 -0.632254 5.20539
head 12.4509 -0.454143 3.47542
rclavicle -5.96354e-016 2.0276e-014
rhumerus -37.3534 -12.5786 -62.4765
rradius 60.0367
rwrist 11.0874
rhand -18.7638 -1.41615
rfingers 7.12502
rthumb 7.53315 -31.262
lclavicle -5.96354e-016 2.0276e-014
lhumerus -37.5964 20.7009 73.3768
lradius 48.6658
lwrist 7.15685
lhand -22.146 43.1446
lfingers 7.12502
lthumb 4.2678 73.0816
rfemur -19.2074 -1.92924 19.0903
rtibia 52.3793
rfoot -22.8199 8.94427
rtoes 6.67041
lfemur -16.6074 3.82963 -23.9725
ltibia 45.6945
lfoot -23.5483 -5.47319
ltoes -7.50233
445
root -1.59801 16.9713 0.313238 2.19066 1.40328 1.68435
lowerback 7.69392 -0.64179 -4.42148
upperback -0.752578 -1.17383 1.93784
thorax -4.9798 -0.432679 4.65735
lowerneck -27.2307 -2.15512 -9.55059
upperneck 23.9981 -0.578416 5.21276
head 12.5306 -0.425522 3.48896
rclavicle 1.4064e-014 -6.36111e-015
rhumerus -37.0947 -12.0519 -64.3413
rradius 58.1424
rwrist 11.1488
rhand -18.4603 -1.59892
rfingers 7.12502
rthumb 7.82604 -31.4341
lclavicle 1.4064e-014 -6.36111e-015
lhumerus -37.526 20.5977 75.1183
lradius 47.1053
lwrist 6.57065
lhand -22.2742 42.8821
lfingers 7.12502
lthumb 4.14398 72.8216
rfemur -19.2246 -2.20089 18.9533
rtibia 52.2686
rfoot -23.3729 8.98094
rtoes 7.03541
lfemur -16.5132 4.25237 -24.2659
ltibia 45.3399
lfoot -23.8552 -5.05632
ltoes -7.53074
446
root -1.5903 16.9817 0.320892 2.31014 1.08696 1.7107
lowerback 7.35362 -0.585282 -4.47369
upperback -0.578256 -1.08846 1.91891
thorax -4.61362 -0.40381 4.64571
lowerneck -27.4603 -2.15927 -9.54263
upperneck 23.8968 -0.582949 5.28437
head 12.5339 -0.412349 3.51409
rclavicle 1.94809e-014 -5.56597e-015
rhumerus -36.8734 -11.7226 -66.0886
rradius 56.4121
rwrist 11.5314
rhand -18.4311 -2.04801
rfingers 7.12502
rthumb 7.85426 -31.8821
lclavicle 1.94809e-014 -5.56597e-015
lhumerus -37.5704 20.4426 76.7668
lradius 45.8852
lwrist 6.36006
lhand -22.7022 42.669
lfingers 7.12502
lthumb 3.73067 72.6161
rfemur -19.1199 -2.25271 18.9577
rtibia 51.8804
rfoot -23.9257 8.86782
rtoes 7.53494
lfemur -16.4092 4.668 -24.4178
ltibia 44.9223
lfoot -24.0928 -4.66884
ltoes -9.04837
447
root -1.58076 16.9918 0.336423 2.42738 0.831282 1.71807
lowerback 6.93129 -0.540574 -4.43215
upperback -0.45535 -1.00849 1.87821
thorax -4.25686 -0.378647 4.55884
lowerneck -27.4516 -2.15846 -9.52726
upperneck 23.7635 -0.608813 5.35473
head 12.4812 -0.409144 3.53044
rclavicle -8.24956e-015 -7.95139e-016
rhumerus -36.9237 -11.4459 -67.6586
rradius 54.96
rwrist 11.9055
rhand -18.6424 -2.34855
rfingers 7.12502
rthumb 7.65031 -32.1902
lclavicle -8.24956e-015 -7.95139e-016
lhumerus -37.9233 20.1833 78.2057
lradius 45.0216
lwrist 6.18847
lhand -22.7787 42.4001
lfingers 7.12502
lthumb 3.65681 72.3485
rfemur -18.8849 -2.25394 18.9652
rtibia 51.2793
rfoot -24.4761 8.7032
rtoes 7.06588
lfemur -16.1855 4.85896 -24.5398
ltibia 44.4327
lfoot -24.2924 -4.27034
ltoes -9.1825
